<svg version="1.2" xmlns="http://www.w3.org/2000/svg" viewBox="0 0 2000 2000" width="2000" height="2000"><style>.s0{fill:#000000}</style><path fill-rule="evenodd" class="s0" d="m385.6 614.4l614.4-614.4l614.6 614.6l-226 226l-388.6-388.6l-388.4 388.4zm-385.6 385.6l226-226l226 226l-226 226zm611.6 159.6l388.4 388.4l388.6-388.6l226.1 225.9l-0.1 0.1l-614.6 614.6l-614.4-614.4l-0.4-0.3zm936.5-159.5l226-226l226 226l-226 226z" /><path class="s0" d="m1229.4 1000l-0.1 0.1l-229.3 229.3l-229.1-229.1l-0.4-0.3l0.4-0.3l40.1-40.2l19.5-19.5l169.5-169.5l229.3 229.4h-0.1z" /></svg>